<svg width="70" height="70" viewBox="0 0 70 70" fill="none" xmlns="http://www.w3.org/2000/svg">
<path fill-rule="evenodd" clip-rule="evenodd" d="M14.49 3.61965C15.4754 3.24766 16.5659 3.77202 16.9257 4.79086L17.9091 7.57542C18.2689 8.59426 17.7617 9.72176 16.7763 10.0938C15.7909 10.4657 14.7003 9.94138 14.3405 8.92255L13.3571 6.13798C12.9973 5.11915 13.5045 3.99165 14.49 3.61965ZM28.425 4.35977C29.3787 4.81164 29.7975 5.97727 29.3605 6.96329L28.2321 9.50897C27.795 10.495 26.6676 10.928 25.7139 10.4761C24.7602 10.0243 24.3414 8.85863 24.7785 7.87262L25.9068 5.32693C26.3439 4.34092 27.4713 3.9079 28.425 4.35977ZM17.3173 11.6557C21.2183 10.1594 25.4284 11.3257 28.122 14.2523L29.75 16.0211L27.7299 17.286C25.4037 18.7424 23.6795 21.1088 22.942 23.8309L22.6608 24.869L21.3916 25.2658C19.3701 25.8977 17.4914 26.9415 15.8661 28.3357L14.2172 29.75L13.0061 28.2193C12.2999 27.3267 11.7255 26.2989 11.323 25.1591C9.40157 19.7183 12.0706 13.6681 17.3173 11.6557ZM4.3312 13.5936C4.77403 12.6103 5.90398 12.1844 6.855 12.6422L9.29768 13.8182C10.2487 14.276 10.6607 15.4443 10.2178 16.4275C9.775 17.4108 8.64505 17.8367 7.69403 17.3789L5.25136 16.2029C4.30033 15.7451 3.88837 14.5768 4.3312 13.5936ZM9.75006 25.7731C10.1149 26.79 9.61341 27.9202 8.62985 28.2974L6.06074 29.2828C5.07718 29.6601 3.98404 29.1416 3.61915 28.1247C3.25426 27.1078 3.75579 25.9776 4.73936 25.6003L7.30846 24.6149C8.29203 24.2376 9.38517 24.7562 9.75006 25.7731Z" fill="#FFC100"/>
<path fill-rule="evenodd" clip-rule="evenodd" d="M58.2886 33.9186C59.2581 29.7122 58.3134 25.8897 56.1454 22.8404C53.7185 19.427 49.8595 17.1032 45.7528 16.0721C41.6365 15.0387 37.0486 15.2467 33.0709 17.1838C29.2753 19.0323 26.1662 22.3977 24.6232 27.415C16.7921 29.2963 12.7146 35.8345 13.5488 42.2237C13.9789 45.518 15.7172 48.6264 18.7147 50.8054C21.7037 52.9781 25.8157 54.1411 30.919 53.8635C33.7929 53.7072 40.0695 53.7873 45.6527 53.8585C48.4372 53.894 51.0492 53.9273 52.9805 53.928C56.907 54.1418 60.0571 53.2186 62.3123 51.4204C64.5893 49.6048 65.7557 47.0488 65.9213 44.4571C66.2132 39.8902 63.3779 35.1532 58.2886 33.9186Z" fill="white"/>
<path fill-rule="evenodd" clip-rule="evenodd" d="M38.9839 58.243C40.038 58.8334 40.414 60.1664 39.8236 61.2205L38.2302 64.0656C37.6399 65.1197 36.3068 65.4956 35.2528 64.9053C34.1987 64.315 33.8227 62.9819 34.4131 61.9278L36.0065 59.0827C36.5968 58.0286 37.9299 57.6527 38.9839 58.243Z" fill="white"/>
<path fill-rule="evenodd" clip-rule="evenodd" d="M57.3589 58.243C58.413 58.8334 58.789 60.1664 58.1986 61.2205L56.6052 64.0656C56.0149 65.1197 54.6818 65.4956 53.6278 64.9053C52.5737 64.315 52.1977 62.9819 52.7881 61.9278L54.3815 59.0827C54.9718 58.0286 56.3049 57.6527 57.3589 58.243Z" fill="white"/>
<path fill-rule="evenodd" clip-rule="evenodd" d="M24.5 59.7917C24.5 58.1808 25.8058 56.875 27.4166 56.875H27.4458C29.0566 56.875 30.3625 58.1808 30.3625 59.7917C30.3625 61.4025 29.0566 62.7083 27.4458 62.7083H27.4166C25.8058 62.7083 24.5 61.4025 24.5 59.7917Z" fill="white"/>
<path fill-rule="evenodd" clip-rule="evenodd" d="M43.1667 64.1667C43.1667 62.5558 44.4725 61.25 46.0833 61.25H46.1125C47.7233 61.25 49.0292 62.5558 49.0292 64.1667C49.0292 65.7775 47.7233 67.0833 46.1125 67.0833H46.0833C44.4725 67.0833 43.1667 65.7775 43.1667 64.1667Z" fill="white"/>
</svg>
