<svg width="70" height="70" viewBox="0 0 70 70" fill="none" xmlns="http://www.w3.org/2000/svg">
<path fill-rule="evenodd" clip-rule="evenodd" d="M58.0589 30.1983C59.2535 25.5677 58.3336 21.3682 56.0685 18.0171C53.5781 14.3327 49.5517 11.7908 45.2244 10.6551C40.8897 9.51741 36.0662 9.7405 31.9051 11.833C27.898 13.8482 24.6325 17.5378 23.0609 23.0776C16.7798 24.5342 12.8252 28.8953 11.6191 33.8545C13.1311 31.2412 15.2167 29.3414 17.6187 28.1293C21.2048 26.3199 25.322 26.1254 29.0051 27.0732C32.6797 28.0187 36.148 30.1602 38.3561 33.324C40.2955 36.1028 41.185 39.575 40.4506 43.3908C43.1112 44.2071 45.0753 46.1281 46.1388 48.4497C46.54 49.3256 46.8164 50.267 46.9554 51.2339C49.2537 51.2633 51.3611 51.2868 52.9993 51.2873C57.1496 51.5227 60.418 50.5059 62.7199 48.5905C65.0365 46.6627 66.1972 43.9669 66.3393 41.251C66.5944 36.3776 63.5428 31.2926 58.0589 30.1983Z" fill="#979797"/>
<path fill-rule="evenodd" clip-rule="evenodd" d="M37.3989 43.5905C38.0148 40.5085 37.2689 37.7042 35.6424 35.4597C33.7907 32.9044 30.8822 31.1748 27.8008 30.4111C24.7121 29.6456 21.2595 29.8027 18.2522 31.2641C15.41 32.6454 13.0962 35.1326 11.9164 38.784C6.09434 40.2898 3.08837 45.2237 3.73137 50.01C4.06625 52.5028 5.3917 54.8631 7.68019 56.5195C9.96373 58.1724 13.078 59.0379 16.8922 58.8306C18.9824 58.7169 23.5433 58.7751 27.6221 58.8272C29.6641 58.8533 31.5852 58.8778 33.0151 58.8784C37.0094 59.0925 40.0025 57.7331 41.6461 55.3333C43.2485 52.9939 43.293 50.0398 42.169 47.6765C41.2771 45.8013 39.63 44.2498 37.3989 43.5905Z" fill="white"/>
</svg>
