<svg width="70" height="70" viewBox="0 0 70 70" fill="none" xmlns="http://www.w3.org/2000/svg">
<path fill-rule="evenodd" clip-rule="evenodd" d="M55.8984 26.1882C57.1941 21.3605 56.1965 16.9821 53.7396 13.4883C51.0385 9.64714 46.6714 6.99712 41.978 5.81306C37.2765 4.62696 32.0448 4.85954 27.5317 7.04112C23.1855 9.14203 19.6437 12.9887 17.9391 18.7642C9.37005 20.6741 4.78668 27.3742 5.12123 34.1043C5.47286 41.1779 11.178 47.5051 21.4949 48.1006L21.553 48.1039L26.0807 48.1121C26.2062 47.6181 26.435 47.1334 26.7843 46.69L26.7941 46.6777L36.7243 34.2701L36.7264 34.2675C37.7965 32.9248 39.4659 32.6198 40.8257 33.1839C42.1527 33.7345 43.0931 35.0578 43.0931 36.6656V44.9715H45.0622C46.719 44.9715 47.8906 46.0582 48.3785 47.2425C48.4967 47.5293 48.5818 47.8359 48.6291 48.1528L53.1094 48.1609L53.1876 48.1552C57.0749 47.8698 60.0737 46.4668 62.086 44.3163C64.0891 42.1758 64.9699 39.4459 64.8909 36.7836C64.7493 32.0046 61.4812 27.2605 55.8984 26.1882Z" fill="white"/>
<path fill-rule="evenodd" clip-rule="evenodd" d="M39.1176 38.354L30.333 49.3303H33.5566C34.7647 49.3303 35.7441 50.3096 35.7441 51.5178V60.8064L44.5287 49.8302H41.3051C40.097 49.8302 39.1176 48.8508 39.1176 47.6427V38.354Z" fill="#04DDF2"/>
</svg>
