<svg width="70" height="70" viewBox="0 0 70 70" fill="none" xmlns="http://www.w3.org/2000/svg">
<path fill-rule="evenodd" clip-rule="evenodd" d="M34.8736 6.8833C36.0817 6.8833 37.0611 7.86268 37.0611 9.0708V13.3739L39.6357 10.2675C40.4066 9.33732 41.7857 9.20824 42.7158 9.97917C43.646 10.7501 43.7751 12.1291 43.0041 13.0593L37.0611 20.2299V31.1976L46.4632 25.7397L49.7062 16.8748C50.1212 15.7402 51.3775 15.1569 52.5121 15.572C53.6467 15.987 54.2299 17.2433 53.8149 18.3779L52.3778 22.3063L56.1062 20.142C57.151 19.5355 58.4897 19.8908 59.0962 20.9356C59.7027 21.9805 59.3474 23.3192 58.3026 23.9257L54.6921 26.0215L58.5814 26.6974C59.7717 26.9042 60.5689 28.0368 60.3621 29.2271C60.1553 30.4174 59.0227 31.2146 57.8324 31.0078L48.8049 29.4391L39.1638 35.0357L49.1779 40.8489L57.9588 39.323C59.1491 39.1162 60.2817 39.9134 60.4885 41.1037C60.6954 42.294 59.8981 43.4266 58.7079 43.6334L55.0652 44.2664L58.4859 46.2521C59.5307 46.8586 59.886 48.1973 59.2795 49.2422C58.673 50.287 57.3343 50.6423 56.2894 50.0358L52.4178 47.7884L53.9413 51.953C54.3564 53.0875 53.7731 54.3438 52.6385 54.7589C51.5039 55.1739 50.2477 54.5906 49.8326 53.456L46.5032 44.355L37.0611 38.8738V49.7636L43.0041 56.9342C43.7751 57.8643 43.646 59.2433 42.7158 60.0143C41.7857 60.7852 40.4066 60.6561 39.6357 59.726L37.0611 56.6196V60.9227C37.0611 62.1308 36.0817 63.1102 34.8736 63.1102C33.6654 63.1102 32.6861 62.1308 32.6861 60.9227V56.6196L30.1114 59.726C29.3405 60.6561 27.9615 60.7852 27.0313 60.0143C26.1011 59.2433 25.972 57.8643 26.743 56.9341L32.6861 49.7636L32.6861 38.796L23.324 44.2306L20.1674 52.8593C19.7523 53.9939 18.4961 54.5772 17.3615 54.1621C16.2269 53.7471 15.6436 52.4908 16.0587 51.3562L17.4094 47.664L13.6409 49.8516C12.5961 50.4581 11.2574 50.1028 10.6509 49.058C10.0443 48.0131 10.3997 46.6744 11.4445 46.0679L15.4281 43.7554L11.2922 43.0367C10.1019 42.8299 9.30464 41.6973 9.51148 40.507C9.71832 39.3167 10.8509 38.5195 12.0412 38.7263L21.3154 40.3379L30.4493 35.0357L20.8682 29.4739L12.0412 31.0078C10.8509 31.2146 9.71832 30.4174 9.51148 29.2271C9.30464 28.0368 10.1019 26.9042 11.2922 26.6974L14.9809 26.0564L11.6278 24.1099C10.5829 23.5034 10.2276 22.1647 10.8341 21.1198C11.4407 20.075 12.7794 19.7197 13.8242 20.3262L17.566 22.4983L16.0587 18.3779C15.6436 17.2433 16.2269 15.987 17.3615 15.572C18.4961 15.1569 19.7523 15.7402 20.1674 16.8748L23.4806 25.9317L32.6861 31.2754V20.2299L26.743 13.0593C25.972 12.1291 26.1011 10.7501 27.0313 9.97917C27.9615 9.20824 29.3405 9.33732 30.1114 10.2675L32.6861 13.3739V9.0708C32.6861 7.86268 33.6654 6.8833 34.8736 6.8833Z" fill="#38C2EE"/>
</svg>
