<svg width="70" height="70" viewBox="0 0 70 70" fill="none" xmlns="http://www.w3.org/2000/svg">
<path fill-rule="evenodd" clip-rule="evenodd" d="M48.4163 35.09C44.2605 33.8933 39.7969 34.4364 36.0493 36.5946C30.986 39.5105 24.8975 40.0551 19.3971 38.0842L12.4392 35.5909C11.4077 35.2213 10.8712 34.0855 11.2408 33.054C11.6104 32.0225 12.7462 31.4859 13.7777 31.8556L20.7356 34.3488C25.1398 35.927 30.0149 35.4909 34.0691 33.1561C38.7495 30.4607 44.3241 29.7824 49.5143 31.2769L55.9823 33.1394C57.0353 33.4426 57.6431 34.5419 57.3399 35.5949C57.0367 36.6478 55.9373 37.2556 54.8844 36.9524L48.4163 35.09Z" fill="#979797"/>
<path fill-rule="evenodd" clip-rule="evenodd" d="M51.8812 50.9132C46.6109 49.697 41.0125 50.2911 36.088 52.5558C29.9122 55.396 22.8434 55.9663 16.2968 54.0896L7.27114 51.5023C6.21785 51.2003 5.60876 50.1017 5.9107 49.0484C6.21265 47.9951 7.31129 47.386 8.36458 47.6879L17.3903 50.2753C23.0121 51.8869 29.1053 51.3996 34.4301 48.9508C40.1418 46.324 46.6364 45.6307 52.7734 47.0469L61.1701 48.9846C62.2377 49.231 62.9035 50.2962 62.6571 51.3639C62.4107 52.4315 61.3455 53.0973 60.2778 52.8509L51.8812 50.9132Z" fill="#979797"/>
<path fill-rule="evenodd" clip-rule="evenodd" d="M51.8812 19.1696C46.6109 17.9534 41.0125 18.5474 36.088 20.8122C29.9122 23.6524 22.8434 24.2227 16.2968 22.346L7.27114 19.7586C6.21785 19.4567 5.60876 18.358 5.9107 17.3047C6.21265 16.2514 7.31129 15.6424 8.36458 15.9443L17.3903 18.5317C23.0121 20.1433 29.1053 19.656 34.4301 17.2072C40.1418 14.5804 46.6364 13.887 52.7734 15.3033L61.1701 17.2409C62.2377 17.4873 62.9035 18.5526 62.6571 19.6202C62.4107 20.6879 61.3455 21.3537 60.2778 21.1073L51.8812 19.1696Z" fill="#979797"/>
</svg>
