<svg width="70" height="70" viewBox="0 0 70 70" fill="none" xmlns="http://www.w3.org/2000/svg">
<path d="M20.3635 38.4876H28.0184V58.1051C28.0184 60.9932 31.2885 62.3555 33.0226 60.1758L51.7761 36.7438C53.4111 34.7003 52.0981 31.5124 49.6208 31.5124H41.9658V11.8949C41.9658 9.00679 38.6957 7.64446 36.9616 9.82419L18.2082 33.2562C16.5979 35.2997 17.9109 38.4876 20.3635 38.4876Z" fill="#38C2EE"/>
<path fill-rule="evenodd" clip-rule="evenodd" d="M40.9524 6.93866C42.8038 7.70682 44.1534 9.56697 44.1534 11.895V29.325H49.6208C51.9089 29.325 53.5589 30.8188 54.2632 32.5286C54.9652 34.2327 54.8534 36.3992 53.4841 38.1105L34.7345 61.5378L34.7318 61.5411C33.2243 63.4331 29.0319 63.0614 29.0319 63.0614C27.1805 62.2933 25.831 60.4331 25.831 58.1051V40.6751H20.3635C18.077 40.6751 16.4393 39.1696 15.7397 37.4714C15.0419 35.7775 15.1392 33.6167 16.4901 31.9024L16.5003 31.8894L35.2498 8.46233L35.2518 8.45985C36.7593 6.56707 39.0665 6.1562 40.9524 6.93866Z" fill="#38C2EE"/>
<path fill-rule="evenodd" clip-rule="evenodd" d="M21.2808 43.0399C22.1073 43.5408 22.3712 44.617 21.8702 45.4435L20.1777 48.2357H21.6499C22.633 48.2357 23.3405 48.8505 23.6604 49.5078C23.9784 50.1614 24.003 51.0071 23.5587 51.74L20.7692 56.3421C20.2682 57.1687 19.192 57.4325 18.3655 56.9315C17.539 56.4306 17.2751 55.3544 17.7761 54.5279L19.4686 51.7357H17.9963C17.0133 51.7357 16.3058 51.1209 15.9859 50.4636C15.6679 49.81 15.6433 48.9643 16.0875 48.2314L18.8771 43.6293C19.3781 42.8027 20.4543 42.5389 21.2808 43.0399Z" fill="#38C2EE"/>
<path fill-rule="evenodd" clip-rule="evenodd" d="M51.5044 11.7064C52.3309 12.2074 52.5948 13.2835 52.0938 14.11L50.4013 16.9022H51.8736C52.8566 16.9022 53.5642 17.517 53.884 18.1743C54.202 18.8279 54.2266 19.6736 53.7824 20.4065L50.9928 25.0086C50.4918 25.8352 49.4156 26.099 48.5891 25.5981C47.7626 25.0971 47.4987 24.0209 47.9997 23.1944L49.6922 20.4022H48.22C47.2369 20.4022 46.5294 19.7874 46.2095 19.1301C45.8915 18.4765 45.8669 17.6308 46.3112 16.8979L49.1008 12.2958C49.6017 11.4693 50.6779 11.2054 51.5044 11.7064Z" fill="#38C2EE"/>
</svg>
