<svg width="70" height="70" viewBox="0 0 70 70" fill="none" xmlns="http://www.w3.org/2000/svg">
<path fill-rule="evenodd" clip-rule="evenodd" d="M35 3.64587C36.2082 3.64587 37.1875 4.62525 37.1875 5.83337V10.889C37.1875 12.0971 36.2082 13.0765 35 13.0765C33.7919 13.0765 32.8125 12.0971 32.8125 10.889V5.83337C32.8125 4.62525 33.7919 3.64587 35 3.64587ZM56.9635 13.0366C57.8178 13.8909 57.8178 15.2759 56.9635 16.1302L53.585 19.5087C52.7308 20.363 51.3457 20.363 50.4914 19.5087C49.6372 18.6544 49.6372 17.2694 50.4914 16.4151L53.8699 13.0366C54.7242 12.1823 56.1092 12.1823 56.9635 13.0366ZM13.0366 13.0366C13.8908 12.1823 15.2759 12.1823 16.1302 13.0366L19.5086 16.4151C20.3629 17.2694 20.3629 18.6544 19.5086 19.5087C18.6544 20.363 17.2693 20.363 16.415 19.5087L13.0366 16.1302C12.1823 15.2759 12.1823 13.8909 13.0366 13.0366ZM3.64587 35.0001C3.64587 33.792 4.62525 32.8126 5.83337 32.8126H10.6945C11.9026 32.8126 12.882 33.792 12.882 35.0001C12.882 36.2082 11.9026 37.1876 10.6945 37.1876H5.83337C4.62525 37.1876 3.64587 36.2082 3.64587 35.0001ZM57.1181 35.0001C57.1181 33.792 58.0975 32.8126 59.3056 32.8126H64.1667C65.3748 32.8126 66.3542 33.792 66.3542 35.0001C66.3542 36.2082 65.3748 37.1876 64.1667 37.1876H59.3056C58.0975 37.1876 57.1181 36.2082 57.1181 35.0001ZM19.5086 50.4915C20.3629 51.3457 20.3629 52.7308 19.5086 53.5851L15.8871 57.2066C15.0328 58.0609 13.6478 58.0609 12.7935 57.2066C11.9392 56.3523 11.9392 54.9673 12.7935 54.113L16.415 50.4915C17.2693 49.6372 18.6544 49.6372 19.5086 50.4915ZM50.4914 50.4915C51.3457 49.6372 52.7308 49.6372 53.585 50.4915L56.9635 53.8699C57.8177 54.7242 57.8177 56.1092 56.9635 56.9635C56.1092 57.8178 54.7241 57.8178 53.8699 56.9635L50.4914 53.5851C49.6372 52.7308 49.6372 51.3457 50.4914 50.4915ZM35 57.1181C36.2082 57.1181 37.1875 58.0975 37.1875 59.3056V64.1667C37.1875 65.3748 36.2082 66.3542 35 66.3542C33.7919 66.3542 32.8125 65.3748 32.8125 64.1667V59.3056C32.8125 58.0975 33.7919 57.1181 35 57.1181Z" fill="#FFC100"/>
<path fill-rule="evenodd" clip-rule="evenodd" d="M18.2292 35.0001C18.2292 25.7378 25.7378 18.2292 35.0001 18.2292C44.2624 18.2292 51.7709 25.7378 51.7709 35.0001C51.7709 44.2624 44.2624 51.7709 35.0001 51.7709C25.7378 51.7709 18.2292 44.2624 18.2292 35.0001Z" fill="#FFC100"/>
</svg>
