<svg width="70" height="70" viewBox="0 0 70 70" fill="none" xmlns="http://www.w3.org/2000/svg">
<path fill-rule="evenodd" clip-rule="evenodd" d="M58.9849 30.5491C61.2632 33.7212 62.2276 37.6959 61.1342 42.0728C66.553 43.2553 69.5681 48.1354 69.2828 52.8251C69.122 55.4674 67.9212 58.0814 65.5535 59.9439C63.2051 61.7911 59.9024 62.7527 55.7542 62.5301C53.711 62.5294 50.9427 62.4948 47.9894 62.4578C42.0616 62.3836 35.3879 62.3001 32.3331 62.4632C26.9454 62.7509 22.6243 61.5433 19.4959 59.3078C16.3602 57.0671 14.5528 53.8789 14.109 50.5106C13.2469 43.9678 17.5213 37.2235 25.8155 35.3194C27.4203 30.0906 30.6952 26.5926 34.7032 24.6755C38.8874 22.6742 43.7237 22.4601 48.0656 23.5364C52.3985 24.6104 56.453 27.024 58.9849 30.5491Z" fill="white"/>
<path fill-rule="evenodd" clip-rule="evenodd" d="M13.6367 8.5157C14.7594 8.0696 16.0312 8.61813 16.4773 9.74088L17.7399 12.9185C18.186 14.0412 17.6374 15.313 16.5147 15.7591C15.3919 16.2052 14.1201 15.6567 13.6741 14.534L12.4115 11.3563C11.9654 10.2336 12.5139 8.96179 13.6367 8.5157ZM30.2132 8.90113C31.3252 9.37337 31.8439 10.6577 31.3716 11.7697L30.1091 14.7427C29.6368 15.8547 28.3525 16.3733 27.2405 15.9011C26.1285 15.4288 25.6099 14.1445 26.0821 13.0325L27.3447 10.0595C27.8169 8.94753 29.1012 8.4289 30.2132 8.90113ZM17.268 17.6863C21.8398 15.8424 26.8637 17.038 30.1484 20.3009L32.0779 22.2177L29.6322 23.7944C26.9852 25.5009 25.0869 28.151 24.3231 31.2064L23.9723 32.6096L22.3735 33.1426C20.0662 33.9117 17.9362 35.1347 16.1088 36.7395L14.1377 38.4707L12.6957 36.8056C11.8305 35.8066 11.117 34.6484 10.6035 33.3558C8.15219 27.1864 11.1189 20.1663 17.268 17.6863ZM1.89279 20.3148C2.37177 19.2056 3.65918 18.6948 4.76829 19.1738L7.71828 20.4478C8.8274 20.9268 9.33823 22.2142 8.85924 23.3233C8.38026 24.4324 7.09286 24.9432 5.98374 24.4642L3.03375 23.1903C1.92463 22.7113 1.41381 21.4239 1.89279 20.3148ZM8.60397 34.1743C9.05586 35.2947 8.51391 36.5693 7.39348 37.0212L4.36287 38.2435C3.24244 38.6954 1.96783 38.1534 1.51593 37.033C1.06404 35.9126 1.60599 34.638 2.72642 34.1861L5.75703 32.9638C6.87746 32.5119 8.15207 33.0538 8.60397 34.1743Z" fill="#FFC100"/>
</svg>
