<svg width="70" height="70" viewBox="0 0 70 70" fill="none" xmlns="http://www.w3.org/2000/svg">
<path fill-rule="evenodd" clip-rule="evenodd" d="M54.6541 21.1892C57.2307 24.8533 58.277 29.4452 56.9182 34.5084C63.1562 35.7049 66.6275 41.265 66.3373 46.5937C66.1756 49.5633 64.8554 52.511 62.2201 54.6188C59.6017 56.7133 55.8839 57.825 51.1628 57.5676C48.8319 57.5669 45.6659 57.5269 42.2843 57.4842C35.4876 57.3983 27.8199 57.3013 24.3113 57.4906C18.1845 57.8211 13.3028 56.4306 9.78837 53.8893C6.26783 51.3436 4.25366 47.7332 3.76437 43.9327C2.8116 36.5319 7.63244 28.8346 17.1075 26.7224C18.8952 20.6652 22.6097 16.6308 27.1679 14.4274C31.9012 12.1394 37.3881 11.8954 42.3188 13.1394C47.2411 14.3812 51.8212 17.1605 54.6541 21.1892Z" fill="white"/>
</svg>
