<svg width="70" height="70" viewBox="0 0 70 70" fill="none" xmlns="http://www.w3.org/2000/svg">
<path fill-rule="evenodd" clip-rule="evenodd" d="M54.9767 26.5574C56.1571 21.8693 55.1987 17.6146 52.8666 14.2087C50.2865 10.4408 46.1218 7.83751 41.6418 6.67469C37.155 5.51008 32.1547 5.73859 27.836 7.89085C23.6903 9.95697 20.3356 13.7186 18.7085 19.3188C10.1134 21.3544 5.80598 28.5806 6.67168 35.4483C7.11879 38.9953 8.94666 42.3823 12.1625 44.7782C15.3764 47.1727 19.8311 48.4747 25.3955 48.165C28.544 47.9898 35.422 48.0795 41.5325 48.1592C44.5773 48.199 47.4315 48.2362 49.5387 48.2369C53.8303 48.4768 57.236 47.4359 59.6432 45.458C62.0613 43.4712 63.2638 40.7054 63.4202 37.9364C63.6975 33.0248 60.6358 27.7778 54.9767 26.5574Z" fill="white"/>
<path fill-rule="evenodd" clip-rule="evenodd" d="M41.4172 60.0833C41.4172 58.4725 42.7231 57.1666 44.3339 57.1666H44.3631C45.9739 57.1666 47.2797 58.4725 47.2797 60.0833C47.2797 61.6941 45.9739 63 44.3631 63H44.3339C42.7231 63 41.4172 61.6941 41.4172 60.0833Z" fill="white"/>
<path fill-rule="evenodd" clip-rule="evenodd" d="M33.5417 53.6668C33.5417 52.056 34.8475 50.7501 36.4584 50.7501H36.4875C38.0984 50.7501 39.4042 52.056 39.4042 53.6668C39.4042 55.2776 38.0984 56.5835 36.4875 56.5835H36.4584C34.8475 56.5835 33.5417 55.2776 33.5417 53.6668Z" fill="white"/>
<path fill-rule="evenodd" clip-rule="evenodd" d="M16.0417 53.6668C16.0417 52.056 17.3475 50.7501 18.9584 50.7501H18.9875C20.5984 50.7501 21.9042 52.056 21.9042 53.6668C21.9042 55.2776 20.5984 56.5835 18.9875 56.5835H18.9584C17.3475 56.5835 16.0417 55.2776 16.0417 53.6668Z" fill="white"/>
<path fill-rule="evenodd" clip-rule="evenodd" d="M30.2483 54.2381C31.2969 54.8379 31.6608 56.1743 31.0609 57.223L27.8226 62.8841C27.2228 63.9328 25.8863 64.2966 24.8377 63.6968C23.789 63.0969 23.4252 61.7605 24.025 60.7118L27.2633 55.0507C27.8632 54.002 29.1996 53.6382 30.2483 54.2381Z" fill="white"/>
<path fill-rule="evenodd" clip-rule="evenodd" d="M55.6239 49.8631C56.6725 50.4629 57.0364 51.7993 56.4365 52.848L53.1982 58.5091C52.5983 59.5578 51.2619 59.9216 50.2132 59.3218C49.1646 58.7219 48.8007 57.3855 49.4006 56.3368L52.6389 50.6757C53.2388 49.627 54.5752 49.2632 55.6239 49.8631Z" fill="white"/>
</svg>
