<svg width="48" height="99" viewBox="0 0 48 99" fill="none" xmlns="http://www.w3.org/2000/svg">
<path d="M27.3874 65.2473C33.5178 69.145 31.1927 79.5697 23.84 79.6853C16.0692 79.4229 14.1187 68.4958 20.9309 64.8438V19.222C20.9309 17.4662 22.2352 16.0382 23.8401 16.0382C25.445 16.0382 26.7486 17.466 26.7486 19.222V64.8438L27.3874 65.2473Z" fill="#F0F8FF"/>
<path d="M41.7253 54.5206C54.8668 70.2793 45.5354 97.731 23.9591 98.014C2.05792 97.3111 -7.18465 70.0507 6.27917 54.1175V19.2219C6.27917 8.62297 14.1569 0 23.8401 0C33.5233 0 41.4003 8.62297 41.4003 19.2219V54.1225L41.7253 54.5206ZM36.8048 85.7473C43.6662 78.2933 43.4802 65.0752 36.3671 57.8564C35.8077 57.2379 35.4982 56.4337 35.4984 55.5999V19.222C35.4984 12.1346 30.2316 6.36837 23.7567 6.36837C17.2818 6.36837 12.0143 12.1346 12.0143 19.222V55.4221C12.0134 56.2561 11.7023 57.06 11.1418 57.6774C4.50121 64.6275 3.93792 76.5702 9.75935 84.2088C15.1376 91.6977 25.4854 93.7701 33.0281 88.6693C33.0281 88.6693 35.3291 87.3999 36.805 85.7473" fill="#F0F8FF"/>
</svg>
