<svg width="82" height="89" viewBox="0 0 82 89" fill="none" xmlns="http://www.w3.org/2000/svg">
<path d="M23.8206 50.3294C25.4245 50.3294 26.7298 51.7572 26.7298 53.5131V76.4245C26.7298 78.1806 25.4245 79.6095 23.8206 79.6095C22.2167 79.6095 20.9121 78.181 20.9121 76.4245V53.5131C20.9121 51.7569 22.2162 50.3294 23.8206 50.3294Z" fill="#F0F8FF"/>
<path d="M40.5653 41.1644C42.1696 41.1644 43.4737 42.5929 43.4737 44.3495V85.5897C43.4737 87.3454 42.1696 88.7734 40.5653 88.7734C38.961 88.7734 37.6559 87.3456 37.6559 85.5897V44.3495C37.6559 42.593 38.9614 41.1644 40.5653 41.1644Z" fill="#F0F8FF"/>
<path d="M57.3095 50.3294C58.9134 50.3294 60.2188 51.7572 60.2188 53.5131V76.4245C60.2188 78.1806 58.9134 79.6095 57.3095 79.6095C55.7056 79.6095 54.4003 78.181 54.4003 76.4245V53.5131C54.4003 51.7569 55.7056 50.3294 57.3095 50.3294Z" fill="#F0F8FF"/>
<path d="M81.01 38.5533C81.358 44.2681 79.6589 49.7892 76.2249 54.1078C75.968 54.3829 75.6577 54.6026 75.3128 54.7535C74.968 54.9043 74.5959 54.9832 74.2196 54.9851C71.7005 54.9791 70.4895 51.7692 71.9331 49.8322C78.9307 41.4097 74.5828 26.8375 63.8471 24.9171C62.7857 24.7184 61.9164 23.9003 61.5774 22.7838C52.3926 -3.60781 18.737 3.91426 18.3576 30.5989C18.3576 32.3579 17.0529 33.7869 15.449 33.7869C6.42668 33.8442 2.58746 46.0215 8.98339 52.2606C11.1001 54.0186 10.0943 57.9328 7.21285 57.9754C6.83417 57.9731 6.45999 57.8931 6.11345 57.7404C5.76691 57.5877 5.45537 57.3656 5.19809 57.0877C-4.13736 48.0878 -0.449411 30.5269 12.6665 27.6569C15.7137 -2.77809 53.3096 -11.1711 66.1631 18.1573V19.0851C74.7022 21.4871 80.5361 29.6099 81.01 38.5533Z" fill="#F0F8FF"/>
</svg>
