<svg width="82" height="62" viewBox="0 0 82 62" fill="none" xmlns="http://www.w3.org/2000/svg">
<path d="M77.2113 26.924C86.4669 40.1487 78.4569 61.0878 61.5166 61.3087H15.4377C11.9782 61.3087 8.57642 60.0165 5.86006 57.6713C-4.47784 48.758 -0.479068 30.417 12.6923 27.688C15.8147 -3.3099 54.2718 -11.1478 66.531 18.9994C70.8493 20.2953 74.5498 23.0132 77.2113 26.924ZM74.9826 42.5442C76.4475 34.9412 71.5699 26.33 63.8868 24.9027C62.8147 24.7061 61.9454 23.9009 61.5974 22.7975C58.529 12.9957 50.1056 6.39358 40.638 6.37102C28.0424 6.18461 18.13 18.1953 18.3832 30.6279C18.3832 32.3864 17.0777 33.8153 15.4736 33.8153C2.6855 34.3827 2.66633 54.3622 15.4736 54.9395H61.5348C68.1302 54.8568 73.7858 49.644 74.9826 42.5442Z" fill="#F0F8FF"/>
</svg>
