<svg width="77" height="89" viewBox="0 0 77 89" fill="none" xmlns="http://www.w3.org/2000/svg">
<path d="M74.9291 15.8052C76.2951 19.1792 76.9871 22.6433 76.9871 26.1022C76.9871 35.4377 70.049 43.0327 61.5204 43.0327C52.9918 43.0327 46.0528 35.4375 46.0528 26.1022C46.0528 22.7357 46.7251 19.3499 48.051 16.0379C49.1335 13.3321 50.6562 10.6609 52.5747 8.09771C55.691 3.93569 58.951 1.27413 59.8759 0.557843C60.3452 0.198422 60.9192 0.00260275 61.5103 0.000312827C62.1014 -0.0019771 62.677 0.189393 63.149 0.545167C66.2072 2.62912 72.6296 9.55182 74.9291 15.8052ZM71.1692 26.1022C70.6047 18.7201 67.1545 11.8644 61.517 7.26307C55.9584 11.8133 52.4626 18.7452 51.8763 25.9701C52.3289 40.129 70.639 40.1352 71.1692 26.1022Z" fill="#F0F8FF"/>
<path d="M49.3729 53.6199C53.4847 58.9922 56.0708 65.3232 56.0567 71.9242C56.0567 81.2597 49.1175 88.8557 40.5891 88.8557C32.0607 88.8557 25.1215 81.26 25.1215 71.9242C25.1215 68.5582 25.7939 65.1724 27.1196 61.8599C28.203 59.1552 29.7255 56.4833 31.6443 53.9197C34.7594 49.7586 38.0197 47.0965 38.9447 46.3799C39.4142 46.0205 39.9884 45.8248 40.5796 45.8227C41.1708 45.8206 41.7464 46.0122 42.2185 46.3682C42.2776 46.4105 45.8281 48.9698 49.3729 53.6199ZM50.2384 71.9242C49.6745 64.5413 46.2235 57.6882 40.5857 53.0851C35.0284 57.6362 31.5307 64.5672 30.9458 71.7921C31.3987 85.9517 49.7079 85.9565 50.2384 71.9242Z" fill="#F0F8FF"/>
<path d="M30.9402 26.1022C30.0869 48.5626 0.855813 48.5583 0.0046389 26.1022C-0.210726 15.9019 7.11178 5.73258 13.8283 0.557648C14.2977 0.198162 14.8719 0.00231021 15.4631 2.03101e-05C16.0543 -0.00226959 16.63 0.189133 17.1021 0.544972C17.1612 0.587206 20.7117 3.14659 24.2561 7.79754C28.3683 13.1716 30.9548 19.4995 30.9402 26.1022ZM25.1215 26.1022C24.558 18.7193 21.107 11.8655 15.4693 7.26307C9.91063 11.8132 6.41504 18.7447 5.82945 25.9701C6.28145 40.1293 24.5914 40.1348 25.1215 26.1022Z" fill="#F0F8FF"/>
</svg>
