<svg width="82" height="80" viewBox="0 0 82 80" fill="none" xmlns="http://www.w3.org/2000/svg">
<path d="M78.243 41.2239C82.1006 41.3964 82.1018 47.4203 78.243 47.5931H74.057C70.1985 47.42 70.1982 41.3972 74.057 41.2239H78.243Z" fill="#F0F8FF"/>
<path d="M16.8992 21.658C16.5111 21.6559 16.1278 21.5726 15.7738 21.4135C15.4199 21.2543 15.1031 21.0229 14.8439 20.734L11.9134 17.5262C10.3935 15.6057 11.5887 12.3221 14.1544 12.3077C14.8429 12.3127 15.5047 12.5746 16.0102 13.042L18.9445 16.2535C20.6737 18.1071 19.5896 21.6425 16.8992 21.658Z" fill="#F0F8FF"/>
<path d="M65.6845 54.9705C69.5285 55.1358 69.5576 61.1601 65.6845 61.3406H15.4512C13.8471 61.3406 12.5429 59.9117 12.5429 58.1555C12.5429 56.3994 13.8471 54.9705 15.4512 54.9705H21.0163L20.3227 53.0575C14.8707 38.6137 24.541 20.606 40.568 20.6036C56.5971 20.6069 66.266 38.615 60.814 53.0576L60.1206 54.9705H65.6845ZM53.5341 54.3914C60.9539 43.4772 53.6226 26.9142 40.5677 26.9733C27.1427 26.996 20.0214 44.0367 27.9841 54.9709H53.1523L53.5341 54.3918" fill="#F0F8FF"/>
<path d="M67.4386 11.8085C70.2815 11.8655 71.3114 15.6338 69.2957 17.4471L66.2886 20.7385C66.0357 21.0203 65.7278 21.2472 65.3837 21.4052C65.0397 21.5632 64.6669 21.6489 64.2884 21.6571C61.6919 21.4843 60.7156 18.0657 62.4041 16.2508L65.215 12.9431C65.4737 12.596 65.8088 12.313 66.1944 12.1163C66.58 11.9195 67.0057 11.8142 67.4386 11.8085Z" fill="#F0F8FF"/>
<path d="M57.3129 73.3002C61.1714 73.4729 61.1717 79.4959 57.3129 79.6685H53.1265C49.2693 79.4966 49.2681 73.4728 53.1265 73.3002H57.3129Z" fill="#F0F8FF"/>
<path d="M36.3822 73.3002C37.9864 73.3002 39.2912 74.7279 39.2912 76.4841C39.2912 78.2402 37.9864 79.6685 36.3822 79.6685H23.8236C19.9681 79.4975 19.9627 73.4739 23.8236 73.3002H36.3822Z" fill="#F0F8FF"/>
<path d="M7.07972 41.2239C10.9377 41.3969 10.9389 47.4197 7.07972 47.5931H2.89323C-0.96426 47.4204 -0.96456 41.3968 2.89323 41.2239H7.07972Z" fill="#F0F8FF"/>
<path d="M40.5676 10.9347C38.9635 10.9347 37.6593 9.50696 37.6593 7.75029V3.16813C37.819 -1.05599 43.3172 -1.05609 43.477 3.16813V7.75029C43.4773 9.50716 42.1728 10.9347 40.5676 10.9347Z" fill="#F0F8FF"/>
</svg>
