<svg width="82" height="87" viewBox="0 0 82 87" fill="none" xmlns="http://www.w3.org/2000/svg">
<path d="M80.0665 48.7285C80.5438 49.1346 80.8984 49.6659 81.0903 50.2625C81.2822 50.8592 81.3038 51.4975 81.1527 52.1058C77.2395 70.7941 60.5889 86.5677 41.2159 86.3503C17.9261 86.5009 0.159871 65.0195 0.0187904 42.3035C-0.474242 25.2366 8.76449 7.6897 24.2634 0.190985C26.4201 -0.662985 28.5358 1.49197 28.101 3.77432C25.0914 16.5658 28.5352 30.8629 37.4532 40.4722C47.2435 51.4996 63.8675 55.0982 77.0159 48.2801C77.51 48.0372 78.0662 47.9501 78.6109 48.0302C79.1556 48.1102 79.6632 48.3537 80.0665 48.7285ZM72.2976 59.3476L73.5781 56.6948C52.6069 62.8552 32.0857 50.759 24.4529 30.7707C21.7149 23.9925 20.98 16.4403 21.2072 9.07334C7.33173 19.9972 2.39821 39.3568 8.68342 55.8189C13.4807 68.9044 25.7829 79.1548 39.8349 79.67L41.1542 79.8876C54.426 79.9775 66.5986 71.4126 72.2973 59.3476" fill="#F0F8FF"/>
</svg>
