<svg width="77" height="80" viewBox="0 0 77 80" fill="none" xmlns="http://www.w3.org/2000/svg">
<path d="M40.5841 54.987C55.5495 55.6607 55.5408 79.0138 40.5864 79.6852C38.5864 79.6688 36.6304 79.0972 34.9363 78.0342C32.2993 76.5733 33.0881 72.0748 36.2487 72.0048C36.8064 72.0066 37.3499 72.1802 37.8055 72.5019C38.6373 73.0117 39.5892 73.2925 40.5645 73.3158C47.8307 73.0046 47.8332 61.6797 40.5845 61.3555H23.8396C22.2355 61.3555 20.9312 59.9264 20.9312 58.1705C20.9312 56.4145 22.2355 54.9865 23.8396 54.9865L40.5841 54.987Z" fill="#F0F8FF"/>
<path d="M65.7007 36.6573C80.6622 37.3281 80.6623 60.6852 65.7007 61.3556C61.8379 61.1791 61.8467 55.1583 65.7007 54.987C72.946 54.6615 72.9463 43.3517 65.7007 43.0268H48.9558C47.3517 43.0268 46.0474 41.5982 46.0474 39.8422C46.0474 38.0863 47.3517 36.6572 48.9558 36.6572L65.7007 36.6573Z" fill="#F0F8FF"/>
<path d="M7.09502 54.987C10.9531 55.1597 10.9534 61.1823 7.09502 61.3556H2.90935C-0.948435 61.1826 -0.949533 55.16 2.90935 54.987H7.09502Z" fill="#F0F8FF"/>
<path d="M2.90924 43.0269C-0.942355 42.8571 -0.955534 36.8336 2.90924 36.6574H32.2114C36.0631 36.8271 36.077 42.8506 32.2114 43.0269H2.90924Z" fill="#F0F8FF"/>
<path d="M2.90924 24.6979C1.30514 24.6979 0 23.2693 0 21.5129C0.16035 17.2881 5.65853 17.2894 5.81838 21.5129C5.81838 23.2693 4.51344 24.6979 2.90924 24.6979Z" fill="#F0F8FF"/>
<path d="M19.6533 24.6979C15.8014 24.5282 15.7877 18.5056 19.6533 18.329H48.9556C51.9683 18.329 54.4188 15.6466 54.4188 12.3482C54.4534 7.90626 49.984 4.87849 46.2582 7.13108C44.8455 8.07101 43.0173 7.5088 42.2317 6.00963C41.4289 4.46683 41.9157 2.51849 43.3093 1.64894C45.0042 0.586202 46.961 0.0153092 48.9614 0C63.9181 0.672952 63.916 24.0287 48.9555 24.6978L19.6533 24.6979Z" fill="#F0F8FF"/>
<path d="M74.0722 24.6979C72.4684 24.6979 71.1637 23.2694 71.1637 21.5129C71.3241 17.2876 76.8218 17.2895 76.9818 21.5129C76.9818 23.2694 75.6763 24.6979 74.0722 24.6979Z" fill="#F0F8FF"/>
</svg>
