<svg id="圖層_1" data-name="圖層 1" xmlns="http://www.w3.org/2000/svg" viewBox="0 0 50 50"><defs><style>.cls-1{fill:none;stroke:#ff8e00;stroke-linecap:round;stroke-linejoin:round;stroke-width:3px;}</style></defs><path class="cls-1" d="M36.16,35.32c4,1.1,6.5,2.76,6.5,4.61,0,3.32-8.06,6-18,6s-18-2.68-18-6c0-1.85,2.53-3.51,6.5-4.61"/><path class="cls-1" d="M28.05,16a6.51,6.51,0,1,0-6.77,0l-2.58.12a4.64,4.64,0,0,0-4.19,3.09A36.85,36.85,0,0,0,12.9,26.1,2.63,2.63,0,0,0,15,29.05c.77.15,1.69.3,2.76.44l.69,8.61A2.83,2.83,0,0,0,21,40.73a36.24,36.24,0,0,0,3.67.2,36.62,36.62,0,0,0,3.68-.2,2.83,2.83,0,0,0,2.51-2.63l.69-8.61c1.06-.14,2-.29,2.75-.44a2.62,2.62,0,0,0,2.13-2.95,36.17,36.17,0,0,0-1.6-6.91,4.66,4.66,0,0,0-4.19-3.09Z"/><path class="cls-1" d="M24.66,31.93v9"/></svg>