<svg width="23" height="23" viewBox="0 0 23 23" fill="none" xmlns="http://www.w3.org/2000/svg">
<path fill-rule="evenodd" clip-rule="evenodd" d="M1.87524 11.5312C1.87524 16.7091 6.07293 20.9062 11.2514 20.9062C16.4298 20.9062 20.6275 16.7091 20.6275 11.5312C20.6275 6.35344 16.4298 2.15625 11.2514 2.15625C6.07293 2.15625 1.87524 6.35344 1.87524 11.5312ZM18.7522 11.5312C18.7522 15.6734 15.394 19.0312 11.2514 19.0312C7.10873 19.0312 3.75046 15.6734 3.75046 11.5312C3.75046 7.38911 7.10873 4.03125 11.2514 4.03125C15.394 4.03125 18.7522 7.38911 18.7522 11.5312ZM12.189 6.84375V8.71875H10.3137V6.84375H12.189ZM12.189 16.2188V10.5938H10.3137V16.2188H12.189Z" fill="white"/>
</svg>
