<svg width="90" height="96" viewBox="0 0 90 96" fill="none" xmlns="http://www.w3.org/2000/svg">
<path d="M16.8862 67.1469C19.5807 67.1677 20.6981 70.718 18.943 72.5825L15.9829 75.8221C15.7248 76.1133 15.4083 76.3468 15.0539 76.5075C14.6995 76.6682 14.3152 76.7525 13.9261 76.7548C11.2326 76.7333 10.1138 73.1836 11.8701 71.3191L14.8291 68.0795C15.0873 67.7883 15.4039 67.5548 15.7584 67.3941C16.1128 67.2334 16.4971 67.1492 16.8862 67.1469Z" fill="#F0F8FF"/>
<path d="M14.8301 20.7367L11.8699 17.4965C11.3148 16.8788 11.0112 16.0757 11.019 15.2453C10.9804 13.6192 12.2818 12.0373 13.9271 12.0621C14.3162 12.0641 14.7006 12.1482 15.055 12.3089C15.4094 12.4697 15.7259 12.7033 15.9839 12.9947L18.9441 16.2337C20.6981 18.0967 19.582 21.65 16.8873 21.6688C16.4981 21.6667 16.1138 21.5827 15.7593 21.4221C15.4049 21.2615 15.0882 21.028 14.8301 20.7367Z" fill="#F0F8FF"/>
<path d="M40.5682 61.8445C44.4227 62.0142 44.4304 68.0371 40.5682 68.2128C20.319 67.9223 12.0694 41.6527 25.1917 27.5761C32.6516 19.0545 45.9816 18.2561 54.213 25.9025C54.8262 26.4598 55.2046 27.2294 55.2714 28.0553C55.4721 29.7833 54.1431 31.5838 52.3746 31.557C51.6927 31.5556 51.0361 31.2987 50.5343 30.8369C47.7586 28.3455 44.2508 26.9723 40.6597 26.9723C19.4267 27.865 19.4335 60.9012 40.5682 61.8445Z" fill="#F0F8FF"/>
<path d="M57.3127 80.173C63.5254 80.18 68.5871 85.7208 68.5941 92.5232C68.5941 94.2775 67.2887 95.7065 65.6844 95.7065C64.0801 95.7065 62.7763 94.2774 62.7763 92.5214C62.8063 89.4686 60.4031 86.5471 57.3293 86.5425L48.9405 86.5413C47.3362 86.5413 46.0313 85.1135 46.0313 83.3575C46.0313 81.6014 47.3362 80.173 48.9405 80.173H57.3127Z" fill="#F0F8FF"/>
<path d="M50.218 46.7004C50.2185 44.9414 51.5223 43.5149 53.1235 43.5149H74.0739C75.5205 43.4937 76.8806 42.8659 77.9033 41.7452C78.9385 40.5939 79.5139 39.1019 79.5198 37.5536C79.5198 35.7786 80.8252 34.3508 82.429 34.3508C84.0328 34.3508 85.3376 35.7786 85.3376 37.5347C85.3312 44.3359 80.27 49.8766 74.0552 49.8837H53.1261C51.4808 49.9061 50.1773 48.3287 50.218 46.7004Z" fill="#F0F8FF"/>
<path d="M78.2427 61.8445C93.2052 62.5141 93.2057 85.8716 78.2427 86.5413C74.3803 86.3653 74.391 80.3441 78.2427 80.1729C81.2554 80.1729 83.7058 77.4907 83.7058 74.1929C83.7058 70.895 81.2554 68.2128 78.2427 68.2128H57.3127C55.7089 68.2128 54.4036 66.7839 54.4036 65.0277C54.4036 63.2716 55.7089 61.8445 57.3127 61.8445H78.2427Z" fill="#F0F8FF"/>
<path d="M32.1966 80.173C33.8003 80.173 35.1046 81.6019 35.1046 83.3575C34.9449 87.5823 29.4464 87.5795 29.2869 83.3575C29.2869 81.6019 30.5923 80.173 32.1966 80.173Z" fill="#F0F8FF"/>
<path d="M7.07987 41.2231C10.9401 41.3948 10.9324 47.4235 7.08197 47.5926H2.89319C-0.964298 47.42 -0.964497 41.3959 2.89319 41.2231H7.07987Z" fill="#F0F8FF"/>
<path d="M40.5714 10.9344C38.92 10.9584 37.6212 9.38111 37.6596 7.75045V3.1676C37.8185 -1.05502 43.317 -1.05672 43.4774 3.1676V7.75045C43.4763 9.50781 42.173 10.9344 40.5714 10.9344Z" fill="#F0F8FF"/>
<path d="M64.2496 21.6694C62.6052 21.6931 61.3042 20.1118 61.341 18.4861C61.3336 17.6552 61.6376 16.8517 62.1931 16.2337L65.1526 12.9947C65.4106 12.7034 65.7271 12.4697 66.0815 12.309C66.4359 12.1483 66.8203 12.0642 67.2094 12.0621C69.9025 12.082 71.021 15.6325 69.2662 17.4965L66.3066 20.7367C66.049 21.0286 65.7325 21.2626 65.378 21.4233C65.0234 21.5841 64.6389 21.6679 64.2496 21.6694Z" fill="#F0F8FF"/>
</svg>
