<svg width="44" height="44" viewBox="0 0 44 44" fill="none" xmlns="http://www.w3.org/2000/svg">
<path d="M16 16V14.5C15.1716 14.5 14.5 15.1716 14.5 16H16ZM16.1992 16H17.6992C17.6992 15.1716 17.0276 14.5 16.1992 14.5V16ZM28 16V14.5C27.1716 14.5 26.5 15.1716 26.5 16H28ZM28.1771 16H29.6771C29.6771 15.1716 29.0055 14.5 28.1771 14.5V16ZM16.1992 16.1602V17.6602C17.0276 17.6602 17.6992 16.9886 17.6992 16.1602H16.1992ZM16 16.1602H14.5C14.5 16.9886 15.1716 17.6602 16 17.6602V16.1602ZM28.1771 16.1602V17.6602C29.0055 17.6602 29.6771 16.9886 29.6771 16.1602H28.1771ZM28 16.1602H26.5C26.5 16.9886 27.1716 17.6602 28 17.6602V16.1602ZM15.0666 26.5816C14.2381 26.5816 13.5666 27.2532 13.5666 28.0816C13.5666 28.91 14.2381 29.5816 15.0666 29.5816V26.5816ZM28.9334 29.5816C29.7619 29.5816 30.4334 28.91 30.4334 28.0816C30.4334 27.2532 29.7619 26.5816 28.9334 26.5816V29.5816ZM40.5 22C40.5 32.2173 32.2173 40.5 22 40.5V43.5C33.8741 43.5 43.5 33.8741 43.5 22H40.5ZM22 40.5C11.7827 40.5 3.5 32.2173 3.5 22H0.5C0.5 33.8741 10.1259 43.5 22 43.5V40.5ZM3.5 22C3.5 11.7827 11.7827 3.5 22 3.5V0.5C10.1259 0.5 0.5 10.1259 0.5 22H3.5ZM22 3.5C32.2173 3.5 40.5 11.7827 40.5 22H43.5C43.5 10.1259 33.8741 0.5 22 0.5V3.5ZM16 17.5H16.1992V14.5H16V17.5ZM28 17.5H28.1771V14.5H28V17.5ZM14.6992 16V16.1602H17.6992V16H14.6992ZM16.1992 14.6602H16V17.6602H16.1992V14.6602ZM17.5 16.1602V16H14.5V16.1602H17.5ZM26.6771 16V16.1602H29.6771V16H26.6771ZM28.1771 14.6602H28V17.6602H28.1771V14.6602ZM29.5 16.1602V16H26.5V16.1602H29.5ZM28.9334 26.5816H15.0666V29.5816H28.9334V26.5816Z" fill="#FFC100"/>
</svg>
