<?xml version="1.0" encoding="utf-8"?>
<!-- Generator: Adobe Illustrator 25.0.1, SVG Export Plug-In . SVG Version: 6.00 Build 0)  -->
<svg version="1.1" id="圖層_1" xmlns="http://www.w3.org/2000/svg" xmlns:xlink="http://www.w3.org/1999/xlink" x="0px" y="0px"
	 viewBox="0 0 48 48" style="enable-background:new 0 0 48 48;" xml:space="preserve">
<path d="M18.8,18.8v-1.5c-0.8,0-1.5,0.7-1.5,1.5H18.8z M19,18.8h1.5c0-0.8-0.7-1.5-1.5-1.5V18.8z M30.8,18.8v-1.5
	c-0.8,0-1.5,0.7-1.5,1.5H30.8z M31,18.8h1.5c0-0.8-0.7-1.5-1.5-1.5V18.8z M19,19v1.5c0.8,0,1.5-0.7,1.5-1.5H19z M18.8,19h-1.5
	c0,0.8,0.7,1.5,1.5,1.5V19z M31,19v1.5c0.8,0,1.5-0.7,1.5-1.5H31z M30.8,19h-1.5c0,0.8,0.7,1.5,1.5,1.5V19z M24.8,29.8v-1.5V29.8z
	 M30.5,34.5c0.4,0.7,1.4,0.9,2.1,0.5c0.7-0.4,0.9-1.4,0.5-2.1L30.5,34.5z M16.6,32.9c-0.4,0.7-0.2,1.6,0.5,2.1
	c0.7,0.4,1.6,0.2,2.1-0.5L16.6,32.9z M43.3,24.8c0,10.2-8.3,18.5-18.5,18.5v3c11.9,0,21.5-9.6,21.5-21.5H43.3z M24.8,43.3
	C14.6,43.3,6.3,35,6.3,24.8h-3c0,11.9,9.6,21.5,21.5,21.5V43.3z M6.3,24.8c0-10.2,8.3-18.5,18.5-18.5v-3c-11.9,0-21.5,9.6-21.5,21.5
	H6.3z M24.8,6.3c10.2,0,18.5,8.3,18.5,18.5h3c0-11.9-9.6-21.5-21.5-21.5V6.3z M18.8,20.3H19v-3h-0.2V20.3z M30.8,20.3H31v-3h-0.2
	V20.3z M17.5,18.8V19h3v-0.2H17.5z M19,17.5h-0.2v3H19V17.5z M20.3,19v-0.2h-3V19H20.3z M29.5,18.8V19h3v-0.2H29.5z M31,17.5h-0.2v3
	H31V17.5z M32.3,19v-0.2h-3V19H32.3z M24.8,31.3c2.4,0,4.5,1.3,5.7,3.2l2.6-1.6c-1.7-2.8-4.7-4.6-8.2-4.6L24.8,31.3L24.8,31.3z
	 M19.1,34.5c1.2-1.9,3.3-3.2,5.7-3.2v-3c-3.5,0-6.5,1.9-8.2,4.6L19.1,34.5z"/>
</svg>
