<?xml version="1.0" encoding="utf-8"?>
<!-- Generator: Adobe Illustrator 25.0.1, SVG Export Plug-In . SVG Version: 6.00 Build 0)  -->
<svg version="1.1" id="圖層_1" xmlns="http://www.w3.org/2000/svg" xmlns:xlink="http://www.w3.org/1999/xlink" x="0px" y="0px"
	 viewBox="0 0 50 50" style="enable-background:new 0 0 50 50;" xml:space="preserve">
<path d="M19,19v-1.5c-0.8,0-1.5,0.7-1.5,1.5H19z M19.2,19h1.5c0-0.8-0.7-1.5-1.5-1.5V19z M31,19v-1.5c-0.8,0-1.5,0.7-1.5,1.5H31z
	 M31.2,19h1.5c0-0.8-0.7-1.5-1.5-1.5V19z M19.2,19.2v1.5c0.8,0,1.5-0.7,1.5-1.5H19.2z M19,19.2h-1.5c0,0.8,0.7,1.5,1.5,1.5V19.2z
	 M31.2,19.2v1.5c0.8,0,1.5-0.7,1.5-1.5H31.2z M31,19.2h-1.5c0,0.8,0.7,1.5,1.5,1.5V19.2z M19.3,30.3c-0.4-0.7-1.4-0.9-2.1-0.5
	s-0.9,1.4-0.5,2.1L19.3,30.3z M33.2,31.9c0.4-0.7,0.2-1.6-0.5-2.1c-0.7-0.4-1.6-0.2-2.1,0.5L33.2,31.9z M43.5,25
	c0,10.2-8.3,18.5-18.5,18.5v3c11.9,0,21.5-9.6,21.5-21.5H43.5z M25,43.5C14.8,43.5,6.5,35.2,6.5,25h-3c0,11.9,9.6,21.5,21.5,21.5
	V43.5z M6.5,25C6.5,14.8,14.8,6.5,25,6.5v-3C13.1,3.5,3.5,13.1,3.5,25H6.5z M25,6.5c10.2,0,18.5,8.3,18.5,18.5h3
	c0-11.9-9.6-21.5-21.5-21.5V6.5z M19,20.5h0.2v-3H19V20.5z M31,20.5h0.2v-3H31V20.5z M17.7,19v0.2h3V19H17.7z M19.2,17.7H19v3h0.2
	V17.7z M20.5,19.2V19h-3v0.2H20.5z M29.7,19v0.2h3V19H29.7z M31.2,17.7H31v3h0.2V17.7z M32.5,19.2V19h-3v0.2H32.5z M25,33.5
	c-2.4,0-4.5-1.3-5.7-3.2l-2.6,1.6c1.7,2.8,4.7,4.6,8.2,4.6v-3H25z M30.7,30.3c-1.2,1.9-3.3,3.2-5.7,3.2v3c3.5,0,6.5-1.9,8.2-4.6
	L30.7,30.3z"/>
</svg>
