<?xml version="1.0" encoding="utf-8"?>
<!-- Generator: Adobe Illustrator 25.0.1, SVG Export Plug-In . SVG Version: 6.00 Build 0)  -->
<svg version="1.1" id="圖層_1" xmlns="http://www.w3.org/2000/svg" xmlns:xlink="http://www.w3.org/1999/xlink" x="0px" y="0px"
	 viewBox="0 0 44 44" style="enable-background:new 0 0 44 44;" xml:space="preserve">
<path d="M16,16v-1.5c-0.8,0-1.5,0.7-1.5,1.5H16z M16.2,16h1.5c0-0.8-0.7-1.5-1.5-1.5V16z M28,16v-1.5c-0.8,0-1.5,0.7-1.5,1.5H28z
	 M28.2,16h1.5c0-0.8-0.7-1.5-1.5-1.5V16z M16.2,16.2v1.5c0.8,0,1.5-0.7,1.5-1.5H16.2z M16,16.2h-1.5c0,0.8,0.7,1.5,1.5,1.5V16.2z
	 M28.2,16.2v1.5c0.8,0,1.5-0.7,1.5-1.5H28.2z M28,16.2h-1.5c0,0.8,0.7,1.5,1.5,1.5V16.2z M15.1,26.6c-0.8,0-1.5,0.7-1.5,1.5
	s0.7,1.5,1.5,1.5V26.6z M28.9,29.6c0.8,0,1.5-0.7,1.5-1.5s-0.7-1.5-1.5-1.5V29.6z M40.5,22c0,10.2-8.3,18.5-18.5,18.5v3
	c11.9,0,21.5-9.6,21.5-21.5H40.5z M22,40.5C11.8,40.5,3.5,32.2,3.5,22h-3c0,11.9,9.6,21.5,21.5,21.5V40.5z M3.5,22
	C3.5,11.8,11.8,3.5,22,3.5v-3C10.1,0.5,0.5,10.1,0.5,22H3.5z M22,3.5c10.2,0,18.5,8.3,18.5,18.5h3c0-11.9-9.6-21.5-21.5-21.5V3.5z
	 M16,17.5h0.2v-3H16V17.5z M28,17.5h0.2v-3H28V17.5z M14.7,16v0.2h3V16H14.7z M16.2,14.7H16v3h0.2V14.7z M17.5,16.2V16h-3v0.2H17.5z
	 M26.7,16v0.2h3V16H26.7z M28.2,14.7H28v3h0.2V14.7z M29.5,16.2V16h-3v0.2H29.5z M28.9,26.6H15.1v3H29v-3H28.9z"/>
</svg>
